# xmcd CD database file
#
# Track frame offsets:
#	150
#	46577
#	62440
#	85530
#	95310
#	116570
#	173185
#	194162
#	208987
#	239137
#
# Disc length: 3245 seconds
#
# Revision: 0
# Processed by: cddbd v1.5.1PL0 Copyright (c) Steve Scherf et al.
# Submitted via: CDex 1.51
#
DISCID=870cab0a
DTITLE=Rahsaan Roland Kirk - The Man Who Cried Fire
DYEAR=2002
DGENRE=Jazz
TTITLE0=Slow Blues
TTITLE1=Bye Bye Blackbird
TTITLE2=Multi-Horn Variations
TTITLE3=Unidentified Tenor Selection
TTITLE4=You Did It You Did It
TTITLE5=New Orleans Fantasy
TTITLE6=Night Train
TTITLE7=Mr. P.C.
TTITLE8=A Visit From The Blues
TTITLE9="Bright Moments"
EXTD=YEAR: 2002
EXTT0=
EXTT1=
EXTT2=
EXTT3=
EXTT4=
EXTT5=
EXTT6=
EXTT7=
EXTT8=
EXTT9=
PLAYORDER=
